HIERARCHY
ROOT Hip
{
	OFFSET 0.000000 0.000000 0.250954
	CHANNELS 6 Xposition Yposition Zposition Xrotation Yrotation Zrotation
	JOINT LowerSpine
	{
		OFFSET -0.034798 0.150727 0.259874
		CHANNELS 6 Xposition Yposition Zposition Xrotation Yrotation Zrotation
		JOINT MiddleSpine
		{
			OFFSET 0.002509 -0.010867 0.237154
			CHANNELS 3 Xrotation Yrotation Zrotation
			JOINT Chest
			{
				OFFSET -0.013224 0.057279 0.293449
				CHANNELS 3 Xrotation Yrotation Zrotation
				JOINT Neck
				{
					OFFSET -0.002784 0.012059 0.661279
					CHANNELS 6 Xposition Yposition Zposition Xrotation Yrotation Zrotation
					JOINT Head
					{
						OFFSET 0.022846 -0.098970 0.373433
						CHANNELS 3 Xrotation Yrotation Zrotation
						End Site
						{
							OFFSET 0.000360 -0.001560 0.053629
						}
					}
				}
				JOINT LClavicle
				{
					OFFSET 0.102810 -0.178216 0.638168
					CHANNELS 6 Xposition Yposition Zposition Xrotation Yrotation Zrotation
					JOINT LShoulder
					{
						OFFSET 0.308712 0.223282 0.091536
						CHANNELS 3 Xrotation Yrotation Zrotation
						JOINT LForearm
						{
							OFFSET 0.805651 0.193367 -0.002936
							CHANNELS 3 Xrotation Yrotation Zrotation
							JOINT LHand
							{
								OFFSET 0.672498 0.159508 0.002006
								CHANNELS 3 Xrotation Yrotation Zrotation
								JOINT LFinger1
								{
									OFFSET 0.277738 -0.012235 0.023428
									CHANNELS 6 Xposition Yposition Zposition Xrotation Yrotation Zrotation
									JOINT LFinger11
									{
										OFFSET 0.101598 0.005338 -0.024433
										CHANNELS 3 Xrotation Yrotation Zrotation
										JOINT LFinger12
										{
											OFFSET 0.069360 0.003639 -0.016682
											CHANNELS 3 Xrotation Yrotation Zrotation
											End Site
											{
												OFFSET 0.051353 0.003398 -0.015164
											}
										}
									}
								}
								JOINT LFinger2
								{
									OFFSET 0.266355 0.054846 0.027054
									CHANNELS 6 Xposition Yposition Zposition Xrotation Yrotation Zrotation
									JOINT LFinger21
									{
										OFFSET 0.120546 0.028580 0.000345
										CHANNELS 3 Xrotation Yrotation Zrotation
										JOINT LFinger22
										{
											OFFSET 0.066816 0.015854 0.000210
											CHANNELS 3 Xrotation Yrotation Zrotation
											End Site
											{
												OFFSET 0.052164 0.011968 -0.003780
											}
										}
									}
								}
								JOINT LFinger3
								{
									OFFSET 0.237335 0.117352 0.018055
									CHANNELS 6 Xposition Yposition Zposition Xrotation Yrotation Zrotation
									JOINT LFinger31
									{
										OFFSET 0.107949 0.032147 -0.005692
										CHANNELS 3 Xrotation Yrotation Zrotation
										JOINT LFinger32
										{
											OFFSET 0.061512 0.018330 -0.003223
											CHANNELS 3 Xrotation Yrotation Zrotation
											End Site
											{
												OFFSET 0.051264 0.014415 -0.006540
											}
										}
									}
								}
								JOINT LFinger4
								{
									OFFSET 0.209281 0.156354 -0.018169
									CHANNELS 6 Xposition Yposition Zposition Xrotation Yrotation Zrotation
									JOINT LFinger41
									{
										OFFSET 0.063080 0.034153 -0.014420
										CHANNELS 3 Xrotation Yrotation Zrotation
										JOINT LFinger42
										{
											OFFSET 0.046255 0.025053 -0.010559
											CHANNELS 3 Xrotation Yrotation Zrotation
											End Site
											{
												OFFSET 0.046612 0.022657 -0.013878
											}
										}
									}
								}
								JOINT LFinger0
								{
									OFFSET 0.063442 -0.028467 -0.041941
									CHANNELS 6 Xposition Yposition Zposition Xrotation Yrotation Zrotation
									JOINT LFinger01
									{
										OFFSET 0.118022 -0.052582 -0.033880
										CHANNELS 3 Xrotation Yrotation Zrotation
										JOINT LFinger02
										{
											OFFSET 0.077202 -0.032408 -0.024309
											CHANNELS 3 Xrotation Yrotation Zrotation
											End Site
											{
												OFFSET 0.048053 -0.018832 -0.014659
											}
										}
									}
								}
							}
						}
					}
				}
				JOINT RClavicle
				{
					OFFSET -0.014280 -0.205248 0.638167
					CHANNELS 6 Xposition Yposition Zposition Xrotation Yrotation Zrotation
					JOINT RShoulder
					{
						OFFSET -0.375415 0.065365 0.091551
						CHANNELS 3 Xrotation Yrotation Zrotation
						JOINT RForearm
						{
							OFFSET -0.808881 -0.179376 -0.002939
							CHANNELS 3 Xrotation Yrotation Zrotation
							JOINT RHand
							{
								OFFSET -0.674361 -0.151438 0.002003
								CHANNELS 3 Xrotation Yrotation Zrotation
								JOINT RFinger1
								{
									OFFSET -0.244269 -0.132749 0.023430
									CHANNELS 6 Xposition Yposition Zposition Xrotation Yrotation Zrotation
									JOINT RFinger11
									{
										OFFSET -0.093656 -0.039740 -0.024433
										CHANNELS 3 Xrotation Yrotation Zrotation
										JOINT RFinger12
										{
											OFFSET -0.063936 -0.027135 -0.016688
											CHANNELS 3 Xrotation Yrotation Zrotation
											End Site
											{
												OFFSET -0.047645 -0.019457 -0.015164
											}
										}
									}
								}
								JOINT RFinger2
								{
									OFFSET -0.263441 -0.067469 0.027053
									CHANNELS 6 Xposition Yposition Zposition Xrotation Yrotation Zrotation
									JOINT RFinger21
									{
										OFFSET -0.120875 -0.027156 0.000347
										CHANNELS 3 Xrotation Yrotation Zrotation
										JOINT RFinger22
										{
											OFFSET -0.067005 -0.015038 0.000210
											CHANNELS 3 Xrotation Yrotation Zrotation
											End Site
											{
												OFFSET -0.052131 -0.012110 -0.003781
											}
										}
									}
								}
								JOINT RFinger3
								{
									OFFSET -0.264759 0.001435 0.018057
									CHANNELS 6 Xposition Yposition Zposition Xrotation Yrotation Zrotation
									JOINT RFinger31
									{
										OFFSET -0.111116 -0.018429 -0.005693
										CHANNELS 3 Xrotation Yrotation Zrotation
										JOINT RFinger32
										{
											OFFSET -0.063324 -0.010490 -0.003223
											CHANNELS 3 Xrotation Yrotation Zrotation
											End Site
											{
												OFFSET -0.052396 -0.009516 -0.006540
											}
										}
									}
								}
								JOINT RFinger4
								{
									OFFSET -0.256642 0.048788 -0.018170
									CHANNELS 6 Xposition Yposition Zposition Xrotation Yrotation Zrotation
									JOINT RFinger41
									{
										OFFSET -0.071668 0.003044 -0.014420
										CHANNELS 3 Xrotation Yrotation Zrotation
										JOINT RFinger42
										{
											OFFSET -0.052556 0.002241 -0.010556
											CHANNELS 3 Xrotation Yrotation Zrotation
											End Site
											{
												OFFSET -0.051827 -0.000070 -0.013879
											}
										}
									}
								}
								JOINT RFinger0
								{
									OFFSET -0.044542 -0.053394 -0.041938
									CHANNELS 6 Xposition Yposition Zposition Xrotation Yrotation Zrotation
									JOINT RFinger01
									{
										OFFSET -0.083026 -0.099001 -0.033886
										CHANNELS 3 Xrotation Yrotation Zrotation
										JOINT RFinger02
										{
											OFFSET -0.055183 -0.062971 -0.024307
											CHANNELS 3 Xrotation Yrotation Zrotation
											End Site
											{
												OFFSET -0.034934 -0.037991 -0.014660
											}
										}
									}
								}
							}
						}
					}
				}
			}
		}
	}
	JOINT RThigh
	{
		OFFSET -0.305056 -0.044559 0.117468
		CHANNELS 6 Xposition Yposition Zposition Xrotation Yrotation Zrotation
		JOINT RShin
		{
			OFFSET -0.021676 -0.005004 -1.209168
			CHANNELS 3 Xrotation Yrotation Zrotation
			JOINT RFoot
			{
				OFFSET -0.000000 0.000000 -1.187332
				CHANNELS 3 Xrotation Yrotation Zrotation
				JOINT RToe
				{
					OFFSET 0.061386 -0.265894 -0.130497
					CHANNELS 3 Xrotation Yrotation Zrotation
					End Site
					{
						OFFSET 0.012069 -0.052278 0.000000
					}
				}
			}
		}
	}
	JOINT LThigh
	{
		OFFSET 0.293713 0.093678 0.117477
		CHANNELS 6 Xposition Yposition Zposition Xrotation Yrotation Zrotation
		JOINT LShin
		{
			OFFSET 0.021676 0.005005 -1.209177
			CHANNELS 3 Xrotation Yrotation Zrotation
			JOINT LFoot
			{
				OFFSET -0.000000 0.000000 -1.187331
				CHANNELS 3 Xrotation Yrotation Zrotation
				JOINT LToe
				{
					OFFSET 0.061387 -0.265897 -0.130500
					CHANNELS 3 Xrotation Yrotation Zrotation
					End Site
					{
						OFFSET 0.012069 -0.052278 0.000000
					}
				}
			}
		}
	}
}
MOTION
Frames: 5
Frame Time: 0.041667
-0.037197 -0.700824 2.423959 19.607969 1.579930 -17.519188 -0.034798 0.150727 0.259873 0.000022 -0.000006 -0.000008 3.202232 2.874919 0.973714 6.849180 6.876617 2.355538 -0.002784 0.012059 0.661279 6.568393 4.830977 0.590956 -1.270291 -2.462805 -0.091841 0.102810 -0.178216 0.638168 -2.674326 11.425400 0.267615 40.766855 34.923662 -59.559871 0.000307 0.000113 1.763053 0.000003 -0.000011 -0.000008 0.277738 -0.012235 0.023428 -0.000009 0.000008 -0.000004 -0.000005 -0.000000 -0.000000 0.000001 -0.000016 0.000006 0.266354 0.054846 0.027054 -0.000006 0.000005 -0.000007 -1.062491 4.592017 0.042607 -0.000003 0.000011 0.000006 0.237335 0.117352 0.018055 -0.985208 1.575994 -0.631660 0.000003 -0.000001 0.000000 -0.000000 0.000003 0.000004 0.209281 0.156354 -0.018169 -0.000012 0.000010 0.000005 0.000000 0.000011 -0.000003 -0.000001 0.000006 -0.000016 0.063441 -0.028467 -0.041941 -0.000005 0.000001 0.000002 0.000009 0.000012 -0.000008 0.000018 0.000003 -0.000006 -0.014280 -0.205248 0.638168 2.698635 -11.526600 0.272433 58.021453 -2.784135 63.286689 0.046518 0.011619 16.307118 0.000001 0.000005 -0.000012 -0.244269 -0.132750 0.023430 0.000000 -0.000000 0.000002 0.000008 -0.000011 -0.000015 0.000009 -0.000013 0.000003 -0.263442 -0.067470 0.027053 -0.000001 0.000006 0.000001 -0.000000 0.000001 -0.000003 0.000001 -0.000000 0.000003 -0.264759 0.001435 0.018057 -0.000001 0.000002 -0.000002 0.000001 0.000005 -0.000011 -0.000004 0.000007 -0.000001 -0.256642 0.048787 -0.018170 -0.000003 -0.000003 -0.000003 -0.000002 -0.000001 0.000007 -0.000011 0.000006 0.000009 -0.044543 -0.053394 -0.041939 -0.000003 0.000014 -0.000003 -0.000008 -0.000013 0.000011 0.000003 -0.000011 0.000011 -0.305056 -0.044559 0.117468 -4.279616 -8.326665 1.068054 2.057449 0.474879 -0.008527 -3.935016 -1.822654 1.680167 -0.968997 -0.223663 -0.001893 0.293713 0.093677 0.117476 -57.816732 -17.182862 -4.796035 37.873498 8.067111 -2.771801 1.534527 0.268162 0.170489 -0.059085 -0.013641 -0.000008 
-0.057689 -0.637030 2.431561 18.092022 1.909883 -16.290616 -0.034798 0.150727 0.259873 0.000018 -0.000006 -0.000008 2.841712 2.648493 0.914717 5.495330 5.873701 2.439848 -0.002784 0.012059 0.661279 6.468457 4.643216 0.562850 -0.338017 -2.161288 -0.068045 0.102810 -0.178216 0.638168 -2.772897 11.834582 0.287497 43.043647 36.807886 -59.364958 0.000037 0.000006 1.914514 0.000002 -0.000012 -0.000007 0.277738 -0.012235 0.023427 -0.000008 0.000007 -0.000007 -0.000006 0.000001 -0.000000 0.000004 -0.000015 0.000006 0.266354 0.054846 0.027054 -0.000003 0.000004 -0.000007 -1.062487 4.592018 0.042607 0.000001 0.000011 0.000006 0.237335 0.117352 0.018055 -0.985207 1.575992 -0.631664 0.000001 -0.000002 0.000002 -0.000003 0.000002 0.000007 0.209281 0.156354 -0.018169 -0.000009 0.000005 -0.000002 -0.000002 0.000009 -0.000005 -0.000000 0.000008 -0.000013 0.063442 -0.028467 -0.041941 -0.000005 -0.000002 -0.000000 0.000003 0.000013 -0.000007 0.000016 0.000004 -0.000006 -0.014280 -0.205248 0.638168 2.770521 -11.824865 0.286982 60.812507 -3.828567 61.217742 0.046571 0.011530 16.194843 0.000002 0.000006 -0.000014 -0.244269 -0.132749 0.023429 -0.000002 0.000000 -0.000002 0.000010 -0.000012 -0.000017 0.000008 -0.000012 0.000002 -0.263441 -0.067470 0.027053 -0.000005 0.000006 -0.000001 0.000003 0.000001 -0.000002 -0.000000 -0.000000 0.000000 -0.264759 0.001435 0.018057 -0.000001 0.000002 -0.000003 -0.000002 0.000004 -0.000009 -0.000003 0.000006 -0.000002 -0.256641 0.048788 -0.018170 -0.000005 -0.000002 -0.000003 -0.000003 -0.000001 0.000007 -0.000006 0.000005 0.000006 -0.044542 -0.053394 -0.041939 -0.000009 0.000013 -0.000003 -0.000004 -0.000009 0.000015 -0.000001 -0.000011 0.000010 -0.305056 -0.044559 0.117468 -4.546063 -9.186627 1.460521 2.994878 0.691066 -0.018067 -3.619701 -1.369042 0.976048 -0.601237 -0.138768 -0.000732 0.293713 0.093678 0.117476 -56.191994 -16.524190 -4.662845 43.747106 9.070210 -3.647715 0.771915 -0.034813 0.443187 -0.632159 -0.145941 -0.000806 
-0.071652 -0.580623 2.442280 16.988245 2.149963 -15.454584 -0.034798 0.150727 0.259873 0.000019 -0.000006 -0.000006 2.480802 2.427295 0.854141 4.153455 4.914471 2.452995 -0.002784 0.012059 0.661279 6.300481 4.427860 0.535411 0.603439 -1.798671 -0.047445 0.102810 -0.178216 0.638167 -2.855064 12.174652 0.304579 45.222652 38.670865 -59.086122 0.000001 -0.000007 1.602722 0.000005 -0.000012 -0.000007 0.277738 -0.012235 0.023427 -0.000005 0.000006 -0.000005 0.000000 0.000000 -0.000000 0.000001 -0.000014 0.000005 0.266355 0.054846 0.027054 -0.000002 0.000004 -0.000008 -1.062487 4.592018 0.042607 0.000001 0.000011 0.000007 0.237335 0.117352 0.018055 -0.985204 1.575993 -0.631664 -0.000004 -0.000001 0.000004 -0.000000 0.000004 0.000006 0.209282 0.156354 -0.018169 -0.000002 0.000007 0.000001 -0.000007 0.000008 -0.000006 0.000003 0.000008 -0.000015 0.063442 -0.028467 -0.041941 0.000005 -0.000000 0.000001 0.000006 0.000015 -0.000007 0.000018 0.000004 -0.000008 -0.014280 -0.205248 0.638167 2.855193 -12.175328 0.304582 63.106351 -5.033128 58.764168 0.049862 0.012727 17.218917 -0.000001 0.000005 -0.000011 -0.244269 -0.132749 0.023430 -0.000000 0.000001 -0.000001 0.000010 -0.000012 -0.000017 0.000008 -0.000011 0.000003 -0.263442 -0.067470 0.027053 0.000001 0.000007 0.000002 0.000001 0.000001 -0.000002 -0.000001 -0.000001 0.000004 -0.264759 0.001435 0.018057 0.000001 0.000002 -0.000002 0.000002 0.000005 -0.000008 -0.000005 0.000006 -0.000001 -0.256642 0.048787 -0.018170 -0.000003 -0.000002 -0.000000 -0.000001 0.000002 0.000007 -0.000007 0.000005 0.000007 -0.044543 -0.053394 -0.041939 -0.000005 0.000014 -0.000000 -0.000007 -0.000009 0.000012 -0.000003 -0.000005 0.000009 -0.305056 -0.044559 0.117468 -4.909567 -9.824141 1.867718 3.418771 0.788761 -0.023542 -2.324060 -0.866360 0.620150 -0.718319 -0.165797 -0.001042 0.293713 0.093677 0.117476 -54.317394 -15.950160 -4.445256 48.589276 9.823315 -4.442943 0.703112 -0.148685 0.640570 -2.551754 -0.588902 -0.013119 
-0.080581 -0.525016 2.451659 16.312799 2.269506 -14.965913 -0.034798 0.150727 0.259873 0.000022 -0.000006 -0.000008 2.122497 2.212976 0.792067 2.719264 3.923183 2.394778 -0.002784 0.012059 0.661279 6.155785 4.214521 0.505462 1.391926 -1.433003 -0.034180 0.102810 -0.178216 0.638168 -2.915650 12.424866 0.317497 47.419606 40.423771 -59.024712 0.000003 -0.000005 1.019930 0.000006 -0.000013 -0.000007 0.277738 -0.012235 0.023427 -0.000002 0.000008 -0.000006 -0.000001 0.000000 -0.000000 0.000005 -0.000016 0.000004 0.266354 0.054846 0.027054 -0.000004 0.000005 -0.000007 -1.062489 4.592018 0.042605 0.000004 0.000011 0.000008 0.237335 0.117352 0.018055 -0.985200 1.575994 -0.631660 -0.000005 -0.000003 0.000000 0.000001 0.000004 0.000004 0.209281 0.156354 -0.018169 -0.000004 0.000007 -0.000001 -0.000003 0.000009 -0.000005 0.000005 0.000006 -0.000017 0.063441 -0.028467 -0.041941 -0.000003 0.000000 0.000002 0.000002 0.000012 -0.000006 0.000012 0.000003 -0.000006 -0.014280 -0.205248 0.638167 2.946322 -12.551474 0.324093 65.117336 -6.294197 56.348883 0.054100 0.014412 18.595371 -0.000002 0.000005 -0.000013 -0.244269 -0.132749 0.023430 -0.000000 0.000000 -0.000003 0.000007 -0.000012 -0.000013 0.000008 -0.000013 0.000007 -0.263441 -0.067470 0.027053 -0.000004 0.000006 -0.000000 0.000002 0.000002 -0.000003 -0.000001 -0.000001 0.000002 -0.264759 0.001435 0.018057 -0.000002 0.000001 -0.000003 0.000000 0.000005 -0.000010 -0.000002 0.000006 -0.000001 -0.256641 0.048787 -0.018170 -0.000003 -0.000002 -0.000003 -0.000006 -0.000000 0.000005 -0.000006 0.000003 0.000008 -0.044542 -0.053394 -0.041939 -0.000003 0.000015 -0.000009 0.000003 -0.000007 0.000014 0.000003 -0.000009 0.000013 -0.305056 -0.044559 0.117468 -5.468604 -10.274303 2.272347 3.341353 0.770921 -0.022486 -0.978815 -0.535701 0.612550 -0.669373 -0.154499 -0.000902 0.293713 0.093678 0.117476 -52.211151 -15.428159 -4.057933 51.862688 10.291988 -5.014763 0.938425 -0.076966 0.607770 -5.790397 -1.334302 -0.067488 
-0.088668 -0.470858 2.456308 15.865129 2.291443 -14.618218 -0.034798 0.150727 0.259873 0.000023 -0.000006 -0.000006 1.769535 2.007071 0.728599 1.470310 3.101514 2.289641 -0.002784 0.012059 0.661280 6.028053 3.997153 0.472528 1.938415 -1.183144 -0.028058 0.102810 -0.178216 0.638168 -2.967999 12.640650 0.328845 49.477149 41.748264 -59.307721 0.000000 -0.000005 0.596101 0.000002 -0.000012 -0.000008 0.277738 -0.012235 0.023428 -0.000007 0.000007 -0.000006 -0.000003 0.000000 -0.000001 0.000007 -0.000014 0.000005 0.266355 0.054846 0.027054 -0.000003 0.000003 -0.000006 -1.062490 4.592019 0.042606 0.000001 0.000013 0.000007 0.237335 0.117352 0.018055 -0.985199 1.575991 -0.631662 0.000001 -0.000000 0.000004 -0.000002 0.000005 0.000004 0.209282 0.156354 -0.018169 -0.000005 0.000006 0.000001 -0.000003 0.000008 -0.000006 0.000001 0.000005 -0.000020 0.063442 -0.028467 -0.041941 -0.000000 -0.000004 0.000003 0.000009 0.000012 -0.000008 0.000013 0.000002 -0.000004 -0.014280 -0.205248 0.638167 3.024159 -12.871863 0.341225 67.026784 -7.291175 54.612389 0.056533 0.015474 19.433529 0.000002 0.000005 -0.000011 -0.244269 -0.132749 0.023430 -0.000001 -0.000000 -0.000002 0.000010 -0.000011 -0.000019 0.000009 -0.000011 0.000004 -0.263441 -0.067470 0.027053 -0.000003 0.000005 0.000001 0.000002 0.000001 -0.000003 0.000001 -0.000000 0.000003 -0.264759 0.001435 0.018057 -0.000003 0.000001 -0.000003 0.000002 0.000005 -0.000010 -0.000006 0.000006 -0.000001 -0.256641 0.048787 -0.018170 -0.000003 -0.000004 -0.000001 -0.000004 -0.000003 0.000007 -0.000010 0.000001 0.000013 -0.044542 -0.053394 -0.041938 -0.000004 0.000013 -0.000003 -0.000006 -0.000008 0.000009 -0.000001 -0.000005 0.000004 -0.305056 -0.044559 0.117468 -6.372665 -10.719574 2.651905 3.613393 0.833599 -0.026297 -0.479200 -0.420868 0.618868 -0.328811 -0.075877 -0.000218 0.293713 0.093677 0.117476 -49.603180 -14.864035 -3.465951 53.125792 10.463770 -5.242308 1.096772 0.126582 0.263402 -8.992652 -2.066706 -0.162540 
